<?xml version="1.0" encoding="UTF-8"?>
<svg width="130px" height="54px" viewBox="0 0 130 54" version="1.1" xmlns="http://www.w3.org/2000/svg" xmlns:xlink="http://www.w3.org/1999/xlink">
    <!-- Generator: Sketch 52.1 (67048) - http://www.bohemiancoding.com/sketch -->
    <title>Artboard</title>
    <desc>Created with Sketch.</desc>
    <g id="Artboard" stroke="none" stroke-width="1" fill="none" fill-rule="evenodd">
        <g id="logo" transform="translate(1.000000, 1.000000)" fill="#221100">
            <path d="M57.0477342,20.9348899 C50.2739785,26.9648684 37.9137127,28.0199804 28.6237857,22.6057076 C27.8929662,23.3789194 27.1720104,24.1700297 26.4214632,24.9316076 C23.5179127,27.876793 20.322931,30.4129995 16.3702285,31.825185 C13.0371533,33.0154301 9.61171694,33.3975614 6.15310223,32.5214337 C2.98322849,31.7186894 0.834708692,29.7632867 0.171142477,26.4690821 C-0.33191245,23.9731471 0.310132698,21.6642506 1.62381446,19.5343383 C3.39571559,16.6589567 6.00424819,14.7751478 9.0584462,13.4596137 C11.8508046,12.2568397 14.7929137,11.6903546 17.8166235,11.4907872 C22.1396677,11.2053074 26.3891816,11.719887 30.5983435,12.6595542 C31.003657,12.7499413 31.2242479,12.7168292 31.4035901,12.2783178 C33.0436747,8.26996611 34.7178343,4.27503821 36.3570222,0.266686495 C36.5058763,0.00268476337 36.351642,0.00268476337 36.6457632,0.00268476337 C38.5171993,0.0322171605 40.7751178,0 42.7335349,0 C42.6411736,0.231784571 42.6402769,0.21478107 42.5461222,0.388395768 C40.8881034,3.4400768 39.2399484,6.49802228 37.5550283,9.53538458 C36.8304857,10.8410745 36.0216523,12.1011234 35.2585511,13.3853353 C35.1769504,13.5231531 35.141082,13.6887135 35.0558944,13.9160235 C35.0361668,13.9321321 34.8846226,14.0028308 34.8101956,14.1218553 C33.1091346,16.8352562 31.3058486,19.4752735 29.1994742,21.9604695 C29.3456381,22.0436971 29.4747645,22.1287146 29.612858,22.1949388 C32.1855222,23.4129265 34.9025568,24.0769579 37.7361639,24.2818949 C40.2272273,24.461774 42.7120138,24.4823572 45.1672088,23.9212417 C49.1979252,23.0003678 52.4189115,20.8042314 55.0265473,17.6576887 C56.2765626,16.1488517 57.3131607,14.5030917 58.1103368,12.7096698 C58.1704165,12.5754316 58.3398949,12.3973423 58.4600541,12.3964474 C60.099242,12.3758642 61.7384299,12.3821287 63.4520448,12.3821287 C62.0657295,15.498244 60.0857914,18.0997797 57.6512207,20.4095712 C59.224052,21.5783381 60.9044886,22.4562558 62.7194319,23.0594326 C66.9895701,24.4796724 71.3655203,24.8116882 75.7674751,23.9391401 C80.6204756,22.9779948 84.2485687,20.1214066 86.9934014,16.1058955 C87.7322913,15.0248308 88.2882522,13.8211618 88.9455414,12.6837171 C89.024452,12.5476891 89.2100712,12.3857084 89.3481647,12.3839185 C90.9756954,12.3633353 92.603226,12.3704947 94.3267048,12.3704947 C92.9359058,15.4481284 90.9407236,18.0102876 88.5536787,20.3630353 C88.7491617,20.5071176 88.9114664,20.6333014 89.0809448,20.7505361 C91.7585242,22.5949685 94.7400886,23.6357618 97.944934,24.0823275 C100.585748,24.45014 103.231943,24.5199439 105.872757,24.1064903 C110.158139,23.4352995 113.627514,21.3089669 116.452154,18.0791966 C117.862681,16.4665487 119.008678,14.6802861 119.890145,12.7248835 C119.958295,12.5736418 120.171712,12.3883931 120.320566,12.3866033 C121.948097,12.3624404 123.575627,12.3713896 125.283862,12.3713896 C125.158323,12.7213038 125.046234,13.0291566 124.938628,13.3379044 C124.204222,15.4472335 123.785458,17.6004138 124.100203,19.8421912 C124.459785,22.4052453 125.682899,24.4474553 127.830522,25.9213904 C127.883428,25.9571872 127.93454,25.9956688 128,26.0422047 C127.339124,26.0323606 126.532084,25.7701487 125.790504,25.3164237 C123.95404,24.1932977 122.8197,22.4866831 121.899674,20.6109284 C121.616314,20.0319144 121.384962,19.4269478 121.108775,18.7852893 C120.631725,19.2452788 120.184266,19.7070581 119.705422,20.1348304 C116.378624,23.1041787 112.577466,25.1580226 108.123502,25.7719385 C100.988372,26.7545619 94.3715403,25.3477459 88.4146885,21.2078408 C88.0452435,20.9509984 87.8345164,20.9420492 87.469555,21.2337935 C84.1212357,23.9140823 80.2922793,25.4533466 76.0320049,25.9160208 C69.1389866,26.6650698 62.8691826,25.006781 57.2073487,21.024382 C57.1661,20.9966394 57.1212645,20.9760562 57.0477342,20.9348899 Z M31.0574596,13.0810621 C30.8745306,13.0219973 30.7714088,12.9727766 30.6629067,12.9557731 C26.375731,12.2675788 22.0867618,12.1109676 17.7986893,12.9405595 C13.8872355,13.6967678 10.2797667,15.1474349 7.21749831,17.7498656 C4.77934082,19.821608 2.959914,22.29517 2.38870903,25.5374692 C1.91703899,28.2150732 3.08814369,30.7119031 5.41241886,31.8287647 C7.02829226,32.6055562 8.7437006,32.8078084 10.5048412,32.5151692 C12.6139057,32.1643601 14.5005859,31.2434863 16.2545528,30.0702447 C21.9701893,26.2480366 26.4277402,21.250797 29.901599,15.3550566 C30.3257434,14.6328553 30.6638035,13.8596435 31.0574596,13.0810621 Z" id="Shape" fill-rule="nonzero"></path>
            <path d="M42,51.9980005 C42,47.9642799 42,44.0046816 42,40.0057345 C43.0085291,40.0057345 44.0398994,39.9901779 45.0712698,40.0103099 C45.8636855,40.0258665 46.6631293,40.0322721 47.4467599,40.1411679 C48.5984861,40.3013088 49.3337986,40.9931176 49.5305848,41.9676893 C49.7528478,43.0694588 49.3434623,44.1062567 48.4016999,44.7687825 C48.1530817,44.9435649 47.8798652,45.0872341 47.6040131,45.2135167 C47.3307966,45.3397992 47.0400099,45.427648 46.6719144,45.5630814 C47.0909635,45.6436094 47.4370963,45.6939394 47.776201,45.7772127 C49.096601,46.1048152 49.8125864,46.8094352 49.956662,47.9038839 C50.1604762,49.4577082 49.643034,50.6354302 48.4544105,51.3244936 C47.6699014,51.7783787 46.817747,51.9577365 45.9322092,51.9915948 C45.5342444,52.0071514 45.1345225,51.9961703 44.7365576,51.9970854 C43.8281786,51.9989156 42.9206781,51.9980005 42,51.9980005 Z M43.6111867,45.9108159 C43.6111867,47.4911779 43.5962521,48.9141442 43.6164578,50.3371105 C43.6305139,51.3812292 43.6507197,51.3912952 44.6522207,51.419663 C45.4147671,51.4416252 46.1808275,51.4809741 46.8968128,51.0957209 C47.8991924,50.5567323 48.4649526,49.4201895 48.3454753,48.136317 C48.2558673,47.1672357 47.6681443,46.4433988 46.5981196,46.2347581 C45.6220953,46.0453343 44.6170803,46.0142212 43.6111867,45.9108159 Z M43.6384205,45.3800632 C44.678576,45.387384 45.7450867,45.4056858 46.7395596,44.9133669 C47.7059202,44.4347744 48.093343,43.6249189 47.9721087,42.4105933 C47.8904073,41.5970775 47.3237685,40.9116745 46.4162681,40.7625146 C45.6220953,40.6316567 44.8024458,40.6581943 43.9933384,40.6490434 C43.8756181,40.6481283 43.6551122,40.8338917 43.6533552,40.9363819 C43.6313924,42.3922915 43.6384205,43.8491162 43.6384205,45.3800632 Z" id="Shape" fill-rule="nonzero"></path>
            <path d="M52.9470396,45.5319345 C53.0882357,44.8687921 53.4262507,44.4868501 53.9294223,44.2941271 C54.8578938,43.9384655 55.8111816,43.8867807 56.7516334,44.2415663 C57.6903737,44.5954758 58.1875552,45.3392115 58.1892667,46.3580155 C58.1909781,47.4547847 58.1670176,48.551554 58.1635946,49.6483232 C58.159316,51.1366706 58.587183,51.5667933 60,51.5124805 C58.9568601,52.244828 57.698931,51.99166 56.962144,50.8616022 C56.7807283,51.0026404 56.6001684,51.1419266 56.4204643,51.2812128 C55.4705994,52.0179404 54.4129121,52.1633587 53.2927561,51.8313495 C52.6124475,51.6289903 52.1717445,51.1287864 52.0468073,50.4218433 C51.9073226,49.636935 52.0579318,48.8581588 52.7938632,48.4744647 C53.4416539,48.1363234 54.1835753,47.9768889 54.8938346,47.7762818 C55.3704785,47.6413757 55.8659486,47.5783027 56.3511498,47.473181 C56.8064004,47.3741915 56.9775472,47.0745948 56.9552981,46.6050514 C56.894541,45.2989149 56.0952853,44.5613113 54.8176743,44.6795732 C54.1373657,44.7426461 53.5332174,45.0150864 52.9470396,45.5319345 Z M56.8697247,47.8192065 C56.0790264,48.0031693 55.2720691,48.1485876 54.4916396,48.3868634 C53.9020388,48.5664462 53.451067,48.9597764 53.392877,49.6597114 C53.3167167,50.5733937 53.7976393,51.228652 54.6439603,51.3731943 C55.4089866,51.5037203 56.7781611,50.8283137 56.8500428,50.1888237 C56.9347605,49.4284437 56.8697247,48.6496675 56.8697247,47.8192065 Z" id="Shape" fill-rule="nonzero"></path>
            <path d="M72.1890972,51.1607336 C70.6244703,52.1581732 68.977397,52.2223563 67.3145756,51.586597 C65.5628233,50.9170114 64.7411394,49.3011592 65.0718509,47.3774017 C65.5637496,44.5195202 68.7022672,43.1326455 71.4053942,44.5784993 C72.5957705,45.215126 73.2470037,46.6575104 72.9125867,47.8899989 C72.0399528,47.8899989 71.1710244,47.8847949 70.302096,47.8917336 C69.2265886,47.900407 68.1510813,47.9342332 67.0755739,47.9264271 C66.6874279,47.9238251 66.5929388,48.0573953 66.6003497,48.3973921 C66.6475943,50.4963521 68.4901301,51.8372579 70.8282701,51.4486901 C71.284967,51.3714969 71.7351794,51.2578755 72.1890972,51.1607336 Z M66.6772379,47.31929 C66.8884486,47.3470448 67.0505621,47.3852077 67.2126756,47.3878097 C68.2353803,47.3999525 69.2590113,47.4199013 70.2826423,47.4068912 C71.6240158,47.3886771 71.7490748,47.2004645 71.2942306,45.9809862 C70.7421183,44.4987041 68.9069934,44.0754428 67.673078,45.1483409 C67.0199921,45.7155805 66.7958123,46.4606245 66.6772379,47.31929 Z" id="Shape" fill-rule="nonzero"></path>
            <path d="M81.9088161,47.8359533 C80.3946279,47.8359533 78.9305722,47.8324263 77.467445,47.8377167 C76.9800453,47.8394802 76.4917173,47.8826852 76.005246,47.8738678 C75.6710292,47.8685774 75.5791195,47.9920202 75.5726208,48.297982 C75.536414,50.1840117 77.0970212,51.6080126 79.1552403,51.496914 C79.8515255,51.4589995 80.5394552,51.2976421 81.2060323,51.1962426 C80.3974131,51.795822 79.4151867,52.0118469 78.3809711,51.9995026 C77.5203626,51.9889218 76.6718231,51.8504895 75.9096229,51.4202031 C74.4659916,50.6054807 73.9015364,49.3675257 74.0138704,47.8209638 C74.0454353,47.3933226 74.1122787,46.9595094 74.2394668,46.5495029 C74.7463624,44.9191762 76.0377394,43.977484 77.8267281,44.0004091 C78.5703607,44.0101082 79.3576272,44.0727113 80.0437002,44.3169517 C81.5309654,44.8486375 82.2718128,46.3696291 81.9088161,47.8359533 Z M75.6905251,47.2742885 C77.3077636,47.2742885 78.8915803,47.2742885 80.4688983,47.2742885 C80.5765904,45.6448435 79.7076265,44.5215141 78.3484778,44.4545023 C76.90856,44.3839635 75.7378725,45.5945847 75.6905251,47.2742885 Z" id="Shape" fill-rule="nonzero"></path>
            <path d="M85,52 C84.6675159,52 84.3369427,52 84,52 C84,47.9916859 84,44.0018476 84,40 C84.3171975,40 84.6566879,40 85,40 C85,43.9612009 85,47.9528868 85,52 Z" id="Shape"></path>
            <path d="M62.2842851,44.3900042 C62.9003752,44.3900042 63.4397666,44.3900042 64,44.3900042 C64,44.6109735 64,44.79482 64,45.0060667 C63.5464777,45.0060667 63.109629,45.0299313 62.6769487,44.9989956 C62.3259692,44.9742471 62.2234264,45.1430676 62.2200917,45.4709861 C62.2150896,45.9845188 62.1917466,46.4971676 62.1884118,47.0107003 C62.1825761,47.8751323 62.1667361,48.7404482 62.1892455,49.6039963 C62.2317632,51.2506597 62.4276782,51.4725129 63.9966653,51.6598949 C63.1988328,52.011678 62.475198,52.1495629 61.7457274,51.7854055 C61.1329721,51.4804678 60.9654023,50.8705925 60.9720717,50.2174071 C60.9870779,48.8544684 61.0362651,47.4924135 61.0671113,46.1303586 C61.0754481,45.7803432 61.067945,45.4303278 61.067945,45.0334669 C60.6994581,45.0334669 60.3601501,45.0334669 60,45.0334669 C60,44.8045426 60,44.6206962 60,44.3908881 C60.3293039,44.3908881 60.655273,44.3908881 60.9954148,44.3908881 C60.9954148,43.7916193 61.0170905,43.2365443 60.989579,42.684121 C60.9562318,42.0132582 60.9487286,42.0008839 61.5631513,42 C61.8182576,42 62.0725302,42 62.3859942,42 C62.3509796,42.8016767 62.3192997,43.5591595 62.2842851,44.3900042 Z" id="Shape"></path>
            <path d="M75.8940496,7.0158034 C76.4478045,8.91986832 74.756808,10.9100344 72.5482924,10.9985955 C72.2611946,11.0100757 72.1404092,10.955135 72.0744417,10.6861714 C71.5885125,8.72224574 73.5526699,6.80588065 75.8940496,7.0158034 Z" id="Shape"></path>
            <path d="M45.9999847,28.7163605 C46.0055665,30.4428961 44.4854618,31.8819472 42.5550964,31.9967781 C42.2453076,32.0155094 42.1159964,31.9585011 42.0555271,31.6677591 C41.6824781,29.8866585 43.2360735,28.1242891 45.3059834,28.0078294 C45.941376,27.9728101 45.9981241,28.0298183 45.9999847,28.7163605 Z" id="Shape"></path>
            <path d="M41.9429873,28.0058323 C42.3287452,30.258471 40.7229811,31.9444801 38.1546949,32 C37.8429051,31.0398321 37.9964592,30.140083 38.6696629,29.3260631 C39.4645864,28.3642623 40.5638091,27.9445971 41.9429873,28.0058323 Z" id="Shape"></path>
            <path d="M106.942151,28.029787 C107.325162,30.099695 105.762438,31.906056 103.552686,31.998543 C103.295176,32.0091831 103.152941,31.9658043 103.086007,31.7259929 C102.543098,29.7763998 104.658957,27.727772 106.942151,28.029787 Z" id="Shape"></path>
            <path d="M80.8954575,7.03794166 C81.4529761,9.01892873 79.7044793,10.9218595 77.4605134,10.9999158 C77.3382668,11.004024 77.1271135,10.8569495 77.0946997,10.7476707 C76.5158806,8.80447928 78.6903882,6.68956401 80.8954575,7.03794166 Z" id="Shape"></path>
            <path d="M30.1322962,12.0116331 C30.1322962,12.0116331 35.2261507,13.2313199 37,14 C37,14 30.7928773,12.2550336 30,12.2550336 L30.069298,12" id="Shape"></path>
        </g>
    </g>
</svg>